<?xml version="1.0" encoding="UTF-8"?><svg id="Layer_1" xmlns="http://www.w3.org/2000/svg" viewBox="0 0 24 24"><path id="photo-film-solid" d="M16.89,5.08v7.88c0,1.24-1.01,2.25-2.25,2.25H3.38c-1.24,0-2.25-1.01-2.25-2.25V5.08c0-1.24,1.01-2.25,2.25-2.25H14.64c1.24,0,2.25,1.01,2.25,2.25Z" fill="#fff"/><path d="M4.64,16.34H15.9c1.24,0,2.25-1.01,2.25-2.25V6.21c0-.12-.02-.24-.04-.35,1,.23,1.76,1.12,1.76,2.19v7.88c0,1.24-1.01,2.25-2.25,2.25H6.36c-1.12,0-2.04-.82-2.21-1.9,.16,.04,.32,.06,.49,.06Z" fill="#fff"/><path d="M7.64,19.34h11.25c1.24,0,2.25-1.01,2.25-2.25v-7.88c0-.12-.02-.24-.04-.35,1,.23,1.76,1.12,1.76,2.19v7.88c0,1.24-1.01,2.25-2.25,2.25H9.36c-1.12,0-2.04-.82-2.21-1.9,.16,.04,.32,.06,.49,.06Z" fill="#fff"/></svg>