<?xml version="1.0" encoding="UTF-8"?><svg id="Layer_1" xmlns="http://www.w3.org/2000/svg" viewBox="0 0 24 24"><path id="photo-film-solid" d="M9.36,2.82h11.25c1.24,0,2.25,1.01,2.25,2.25v7.88c0,1.24-1.01,2.25-2.25,2.25H9.36c-1.24,0-2.25-1.01-2.25-2.25V5.08c0-1.24,1.01-2.25,2.25-2.25Zm7.74,3.75c-.26-.39-.78-.49-1.17-.23-.09,.06-.17,.14-.23,.23l-1.97,2.95-.61-.76c-.29-.36-.82-.42-1.18-.13-.05,.04-.09,.08-.13,.13l-2.25,2.81c-.29,.36-.23,.9,.13,1.19,.15,.12,.34,.19,.53,.19h9.57c.47,0,.84-.38,.85-.84,0-.17-.05-.33-.14-.47l-3.38-5.06Zm-4.92-.38c0-.62-.5-1.13-1.13-1.13s-1.13,.5-1.13,1.13,.5,1.13,1.13,1.13,1.13-.5,1.13-1.13Z"/><path d="M19.36,16.34H8.1c-1.24,0-2.25-1.01-2.25-2.25V6.21c0-.12,.02-.24,.04-.35-1,.23-1.76,1.12-1.76,2.19v7.88c0,1.24,1.01,2.25,2.25,2.25h11.25c1.12,0,2.04-.82,2.21-1.9-.16,.04-.32,.06-.49,.06Z"/><path d="M16.36,19.34H5.1c-1.24,0-2.25-1.01-2.25-2.25v-7.88c0-.12,.02-.24,.04-.35-1,.23-1.76,1.12-1.76,2.19v7.88c0,1.24,1.01,2.25,2.25,2.25H14.64c1.12,0,2.04-.82,2.21-1.9-.16,.04-.32,.06-.49,.06Z"/></svg>