<?xml version="1.0" encoding="UTF-8"?><svg id="Layer_1" xmlns="http://www.w3.org/2000/svg" viewBox="0 0 101 101"><defs><style>.cls-1{fill:#fff;}.cls-2{fill:#ffbf00;}</style></defs><path id="star-solid" class="cls-2" d="M34.47,37.47l-6.27,12.71-14.03,2.05c-1.68,.25-2.84,1.81-2.6,3.49,.1,.67,.41,1.28,.9,1.75l10.15,9.9-2.4,13.98c-.29,1.67,.84,3.26,2.51,3.55,.67,.11,1.35,0,1.95-.31l12.55-6.6,12.55,6.6c1.51,.78,3.36,.2,4.15-1.31,.31-.59,.42-1.27,.3-1.93l-2.4-13.97,10.15-9.89c1.22-1.19,1.24-3.13,.05-4.35-.47-.48-1.09-.8-1.75-.9l-14.03-2.05-6.27-12.71c-.75-1.52-2.6-2.15-4.12-1.39-.6,.3-1.09,.79-1.39,1.39Z"/><path id="star-solid-2" class="cls-1" d="M79.53,42.62l-2.18,4.44-4.9,.71c-.59,.09-.99,.63-.91,1.22,.03,.23,.14,.45,.31,.61l3.54,3.45-.83,4.88c-.1,.58,.29,1.14,.88,1.24,.23,.04,.47,0,.68-.11l4.38-2.3,4.38,2.3c.53,.27,1.17,.07,1.45-.46,.11-.21,.14-.44,.11-.67l-.84-4.88,3.54-3.45c.42-.41,.43-1.09,.02-1.52-.16-.17-.38-.28-.61-.31l-4.9-.71-2.18-4.44c-.26-.53-.91-.75-1.44-.49-.21,.1-.39,.28-.49,.49Z"/><path id="star-solid-3" class="cls-1" d="M62.7,16.87l-2.95,5.98-6.6,.96c-.79,.12-1.34,.85-1.22,1.64,.05,.31,.19,.6,.42,.83l4.77,4.65-1.13,6.57c-.14,.79,.39,1.53,1.18,1.67,.32,.05,.64,0,.92-.15l5.9-3.1,5.9,3.1c.71,.37,1.58,.1,1.95-.6,.15-.28,.2-.61,.15-.92l-1.13-6.57,4.77-4.65c.57-.56,.58-1.47,.03-2.04-.22-.23-.51-.38-.83-.42l-6.6-.96-2.95-5.98c-.35-.72-1.22-1.01-1.94-.65-.28,.14-.51,.37-.65,.65Z"/></svg>