<svg id="Layer_1" data-name="Layer 1" xmlns="http://www.w3.org/2000/svg" viewBox="0 0 287 444"><defs><style>.cls-1{fill:none;}.cls-2{fill:#d9ab28;}.cls-3{fill:#162b54;}</style></defs><title>UCDLibraryLogo</title><path class="cls-1" d="M153.36,331.38l-45.6,12.41v33.62l141,22.18V138.37l-71.48-11.24V299.44C177.31,313.94,167,327.67,153.36,331.38Z"/><path class="cls-2" d="M107.76,343.79l45.6-12.41c13.65-3.71,23.95-17.44,23.95-31.94V127.13l-69.55-10.94Z"/><path class="cls-2" d="M177.31,93.88V6L30.23,37.13C16.05,40.13,5.36,53.81,5.36,69v302.7l69.56-18.93v-275Z"/><path class="cls-3" d="M255.92,106.25,177.31,93.88v33.25l71.48,11.24V399.59l-141-22.18V343.79l-32.84,8.94v25.48c0,15.3,11.29,29.06,25.71,31.33l181,28.46V137.58C281.64,122.28,270.34,108.51,255.92,106.25Z"/></svg>