<?xml version="1.0" standalone="no"?>
<!DOCTYPE svg PUBLIC "-//W3C//DTD SVG 20010904//EN"
 "http://www.w3.org/TR/2001/REC-SVG-20010904/DTD/svg10.dtd">

<svg version="1.0" xmlns="http://www.w3.org/2000/svg"
 width="16.000000px" height="16.000000px" viewBox="0 0 16.000000 16.000000"
 preserveAspectRatio="xMidYMid meet">

  <g>
    <path 
     transform="translate(0.000000,16.000000) scale(0.002773,-0.002773)"
    fill="#ffffff" stroke="none"
    d="M3180 5609 c-47 -10 -94 -21 -105 -23 -11 -2 -31 -7 -45 -10 -14 -3
    -36 -8 -50 -10 -14 -2 -54 -11 -90 -20 -36 -8 -78 -17 -95 -20 -16 -3 -169
    -35 -340 -72 -170 -36 -320 -67 -332 -70 -12 -2 -75 -16 -140 -30 -65 -14
    -129 -27 -143 -30 -14 -2 -86 -18 -162 -34 -75 -16 -151 -32 -170 -35 -68 -12
    -153 -37 -192 -57 -52 -27 -139 -115 -167 -170 -51 -99 -49 -7 -49 -2095 l0
    -1951 108 29 c59 16 157 42 217 59 61 16 209 56 330 89 120 33 221 58 223 56
    2 -2 5 -90 7 -197 3 -218 5 -231 46 -308 68 -126 169 -196 309 -215 25 -3 52
    -8 60 -10 8 -2 35 -6 60 -9 25 -3 54 -8 65 -10 11 -2 56 -9 100 -16 124 -18
    138 -20 165 -25 23 -4 45 -8 120 -20 14 -2 43 -6 65 -10 23 -3 50 -7 62 -9 11
    -3 38 -7 59 -10 22 -4 80 -13 129 -21 103 -16 171 -26 200 -30 11 -2 81 -13
    155 -25 74 -12 146 -23 160 -25 14 -3 43 -7 65 -10 22 -3 63 -10 90 -15 28 -5
    86 -14 130 -20 44 -6 91 -13 105 -16 14 -2 84 -13 155 -25 72 -11 144 -22 160
    -25 17 -2 44 -6 60 -8 17 -2 47 -7 68 -11 l37 -7 0 1933 c0 2100 3 1981 -56
    2088 -62 114 -175 187 -319 205 -22 3 -123 18 -225 35 -102 16 -205 32 -230
    36 -25 4 -97 15 -160 25 -63 11 -133 22 -155 25 -22 3 -60 8 -85 12 -25 4 -56
    7 -70 7 l-25 1 -2 -190 c0 -104 -2 -198 -2 -207 -1 -12 -8 -16 -23 -13 -13 2
    -54 8 -93 15 -38 6 -83 13 -100 15 -26 4 -144 22 -259 40 -21 4 -46 8 -55 10
    -9 1 -52 8 -96 15 -44 7 -89 14 -100 16 -10 2 -37 6 -60 9 -22 3 -52 8 -67 11
    l-28 6 -2 -1448 -3 -1448 -30 -8 c-16 -4 -39 -10 -50 -13 -11 -2 -69 -18 -130
    -35 -126 -35 -129 -36 -170 -45 l-30 -7 0 1739 0 1738 35 -1 c32 0 83 -7 150
    -19 29 -5 280 -44 325 -50 17 -3 41 -7 55 -9 14 -3 43 -8 65 -11 23 -3 52 -7
    65 -10 13 -3 42 -7 65 -10 22 -4 96 -15 165 -26 69 -11 139 -22 155 -24 27 -4
    81 -12 125 -20 8 -1 33 -6 55 -9 l40 -7 0 561 c0 367 -3 560 -10 559 -5 -1
    -48 -10 -95 -20z m255 -1544 c22 -3 63 -10 90 -15 28 -5 68 -12 90 -15 22 -3
    51 -7 65 -10 14 -2 43 -7 65 -10 22 -3 65 -10 95 -15 30 -5 75 -12 100 -16 25
    -3 52 -7 60 -9 8 -2 40 -7 70 -11 30 -4 58 -9 63 -10 4 -1 18 -2 32 -3 l25 -1
    0 -1660 0 -1660 -27 4 c-16 3 -46 7 -68 11 -23 3 -50 7 -60 9 -19 3 -75 12
    -135 21 -14 2 -38 6 -55 9 -16 3 -61 10 -100 16 -38 6 -83 13 -100 17 -16 3
    -41 6 -55 8 -14 1 -45 5 -70 9 -25 4 -58 10 -75 12 -16 2 -41 6 -55 9 -14 3
    -40 7 -57 10 -18 3 -45 7 -60 10 -16 2 -91 14 -168 25 -77 11 -162 25 -190 30
    -27 5 -66 11 -85 14 -73 11 -118 18 -230 36 -135 22 -171 28 -186 29 -13 1
    -16 419 -3 427 5 3 17 7 26 9 111 25 580 161 618 180 106 52 196 171 220 290
    5 22 9 540 10 1150 2 611 3 1113 4 1116 0 3 25 2 54 -2 28 -5 70 -11 92 -14z"/>
  </g>
</svg>
