<svg id="Layer_1" data-name="Layer 1" xmlns="http://www.w3.org/2000/svg" viewBox="0 0 24 24"><defs><style>.cls-1{fill:#cc2028;}.cls-2{fill:#f2f2f2;}</style></defs><title>icon-pinterest</title><path class="cls-1" d="M24,12A12,12,0,1,1,12,0,12,12,0,0,1,24,12Zm0,0"/><path class="cls-2" d="M13,16.07a4.05,4.05,0,0,1-2-1c-.39,2.05-.87,4-2.29,5-.43-3.1.65-5.43,1.15-7.9-.86-1.44.1-4.33,1.9-3.62,2.22.88-1.92,5.35.86,5.91s4.08-5,2.28-6.86c-2.6-2.63-7.56-.06-6.95,3.71.15.93,1.1,1.21.38,2.48-1.66-.37-2.16-1.68-2.09-3.43a5.59,5.59,0,0,1,5-5.14C14.39,5,17.32,6.46,17.73,9.4c.46,3.33-1.41,6.93-4.76,6.67Zm0,0"/></svg>