<svg id="Layer_1" data-name="Layer 1" xmlns="http://www.w3.org/2000/svg" viewBox="0 0 24 24"><defs><style>.cls-1{fill:#5fa9dd;}.cls-2{fill:#f2f2f2;}</style></defs><title>icon-twitter</title><path class="cls-1" d="M24,12A12,12,0,1,1,12,0,12,12,0,0,1,24,12Zm0,0"/><path class="cls-2" d="M19.35,8.62a5.69,5.69,0,0,1-1.65.46A2.85,2.85,0,0,0,19,7.49a5.41,5.41,0,0,1-1.82.69,2.87,2.87,0,0,0-5,2,3.5,3.5,0,0,0,.07.65,8.14,8.14,0,0,1-5.91-3A3,3,0,0,0,6,9.25a2.86,2.86,0,0,0,1.28,2.38,2.75,2.75,0,0,1-1.3-.36v0a2.87,2.87,0,0,0,2.3,2.81,2.66,2.66,0,0,1-.75.1,2.36,2.36,0,0,1-.54-.05,2.86,2.86,0,0,0,2.68,2,5.78,5.78,0,0,1-3.57,1.23,5.07,5.07,0,0,1-.68,0,8.16,8.16,0,0,0,12.56-6.87c0-.12,0-.25,0-.37a5.79,5.79,0,0,0,1.43-1.49Zm0,0"/></svg>