<svg id="Layer_1" data-name="Layer 1" xmlns="http://www.w3.org/2000/svg" viewBox="0 0 424.36 70.57"><path d="M372,64.28l6.79-18,1.19,1c4.17,3.4,9.82,6.3,15.17,6.41,4.77.11,7.11-1.16,6.47-5.2-.47-3-3.88-3.55-6-4l-4.67-.93c-9.09-1.7-16.73-7.31-16.73-17.92C374.17,9.66,388,.65,401.94.65a36.26,36.26,0,0,1,20.3,5.95l-5.9,15.93c-3.23-2.34-8.13-5.62-14.33-5.84-2-.08-6.71,1-5.21,5.73.64,2,3.53,2.86,5.31,3.3L407.38,27c9.85,2.29,17,7.9,17,19.36,0,16.14-13.92,24.13-27.77,24.13A54.52,54.52,0,0,1,372,64.28" style="fill:#fff"/><rect x="343.64" y="1.76" width="23.3" height="67.72" style="fill:#fff"/><polygon points="316.91 1.75 341.2 1.75 316.4 69.47 296.69 69.47 271.97 1.75 296.18 1.75 306.55 42.61 316.91 1.75" style="fill:#fff"/><path d="M214.46,69.47h24.63L241,61h17.59l2.33,8.5h24.64L262.45,1.76H236.62ZM249.79,21.3h0c.44,2.88,4.68,23.61,4.68,23.61h-9.32Z" style="fill:#fff"/><path d="M177.42,50H179c7.82,0,13.61-4.69,13.61-13.53,0-9.51-5.13-14.82-13.72-14.82h-1.48ZM154,1.76h23.87c21.67,0,38.23,9.94,38.23,34.83,0,20-13.5,32.88-32.45,32.88l-29.65,0Z" style="fill:#fff"/><path d="M139.79,3.88,141.05,15c.3,2.64,1.8,9-.05,8.12-1.17-.52-2.13-3.4-3.08-5.94-.49-1.29-2.8-7.41-3.4-7.86-2.92-2.18-10.19-4.64-15.12-4.66-14.93-.06-24.81,11-24.81,30.49,0,14,6.72,30.84,23.79,30.84,6.12,0,17.83-1.93,21-10.63,1.44-3.94,2.76-7.44,3.72-6.38.71.78-.21,3.93-.64,5.63-2,8.07-2.12,10.51-2.76,10.82-7.71,3.87-17.6,5.15-26.27,5.15-27.52,0-37-16.06-37-32.11,0-27.87,17.12-39.4,43.67-38.4a62.63,62.63,0,0,1,19.71,3.82" style="fill:#fff"/><path d="M58.49,5.11,54.08,3.58c-1.48-1.34.32-1.71.32-1.71s6.37,1.18,22.25-.16c0,0,1.38.27.42,1.39l-5.2,2.23c-3.4,1.48-3.4.63-3.4,4.35l0,34.51c0,27-27.46,26.38-32.81,26.38-2.55,0-27.53,0-27.53-21.67V12.38c0-6.37.68-6.2-1.44-7L.3,3s-1.07-1.53.84-1.43a175.62,175.62,0,0,0,30.27.1s1.54.38.53,1.49L26.85,4.69c-4,1.81-3.51.42-3.61,4.57l.12,36C23.36,54.11,27.91,65,42,65c19.46,0,19.64-16.83,19.64-20.57l0-35.68c.21-3.36-.21-2.4-3.19-3.68" style="fill:#fff"/></svg>