<svg id="Layer_1" data-name="Layer 1" xmlns="http://www.w3.org/2000/svg" viewBox="0 0 24 24"><defs><style>.cls-1{fill:#dc4f42;}.cls-2{fill:#fff;}</style></defs><title>icon-googleplus</title><path class="cls-1" d="M24,12A12,12,0,1,1,12,0,12,12,0,0,1,24,12Zm0,0"/><path class="cls-1" d="M4.18,12.54a4.94,4.94,0,0,0,3.33,4.67,4.88,4.88,0,0,0,5.34-1.42,5.59,5.59,0,0,0,1-3.95c-1.58,0-3.16,0-4.73,0v1.68c.94,0,1.89,0,2.84,0a2.77,2.77,0,0,1-1.61,1.87A3.13,3.13,0,1,1,8.24,9.54a3.46,3.46,0,0,1,2.93.57c.44-.41.85-.85,1.25-1.29a5,5,0,0,0-8.24,3.72Zm0,0"/><path class="cls-1" d="M16.92,10.41c0,.47,0,.94,0,1.41H15.5v1.41h1.41c0,.47,0,.94,0,1.41h1.41c0-.47,0-.94,0-1.41h1.41V11.83H18.34c0-.47,0-.94,0-1.41Zm0,0"/><path class="cls-2" d="M4.18,12.54a5,5,0,0,1,8.24-3.72c-.4.44-.81.88-1.25,1.29a3.46,3.46,0,0,0-2.93-.57,3.13,3.13,0,1,0,2.11,5.88A2.77,2.77,0,0,0,12,13.55c-1,0-1.9,0-2.84,0V11.83c1.57,0,3.15,0,4.73,0a5.59,5.59,0,0,1-1,3.95,4.88,4.88,0,0,1-5.34,1.42,4.94,4.94,0,0,1-3.33-4.67Zm0,0"/><path class="cls-2" d="M16.92,10.41h1.41c0,.47,0,.94,0,1.41h1.41v1.41H18.34c0,.47,0,.94,0,1.41H16.92c0-.47,0-.94,0-1.41H15.5V11.83h1.41c0-.47,0-.94,0-1.41Zm0,0"/></svg>