<?xml version="1.0" encoding="utf-8"?>
<!-- Generator: Adobe Illustrator 16.0.0, SVG Export Plug-In . SVG Version: 6.00 Build 0)  -->
<!DOCTYPE svg PUBLIC "-//W3C//DTD SVG 1.1//EN" "http://www.w3.org/Graphics/SVG/1.1/DTD/svg11.dtd">
<svg version="1.1" id="Layer_1" xmlns="http://www.w3.org/2000/svg" xmlns:xlink="http://www.w3.org/1999/xlink" x="0px" y="0px"
	 width="125px" height="86px" viewBox="0 0 125 86" enable-background="new 0 0 125 86" xml:space="preserve">
<g>
	<path fill-rule="evenodd" clip-rule="evenodd" fill="#C99700" d="M123.95,26.923c-0.775-2.422-7.477-16.264-8.305-17.732
		c-0.534-0.958-1.458-1.644-2.533-1.914c-1.034-0.262-25.616-6.412-48.047-6.447c-6.762-0.008-17.013,0.498-27.45,2.976
		C25.906,6.58,16.786,11.17,10.5,17.445C3.82,24.117,0.433,32.567,0.433,42.569c0,10.695,5.152,21.213,14.138,28.842
		c10.598,9.002,26.054,13.76,44.699,13.76c21.583,0,50.099-5.17,54.542-7.197c0.854-0.387,1.551-1.066,1.972-1.912
		c0.003-0.002,0.016-0.008,0.019-0.016c0,0,5.01-9.908,5.646-11.113c0.635-1.203,1.865-3.773,2.503-5.801
		C124.589,57.099,124.809,29.596,123.95,26.923z"/>
	<g>
		<path fill-rule="evenodd" clip-rule="evenodd" fill="#C2C2C2" d="M68.258,40.833c0.076,0.08,0.156,0.153,0.232,0.23
			C68.414,40.986,68.334,40.913,68.258,40.833z"/>
		<path fill-rule="evenodd" clip-rule="evenodd" fill="#CCCCCC" d="M75.97,17.99l8.636-5.155c-8.273,1.432-18.603,5.05-18.603,5.05
			c-20.609,0.299-30.972,7.873-35.092,11.986c-4.417,6.458-3.838,12.762-3.838,12.762c0.384,17.146,10.301,24.235,18.46,27.173
			c2.298,0.709,4.412,1.236,6.164,1.615c2.075,0.352,3.618,0.434,4.219,0.451c-3.273-2.102-4.271-4.764-3.893-7.596
			c-0.026,0.051-0.043,0.076-0.043,0.076c0.021-0.076,0.043-0.152,0.062-0.232c0.138-0.896,0.407-1.812,0.786-2.736
			c0.603-1.844,1.302-3.514,2.037-5.012c-0.098,0.191-0.195,0.391-0.293,0.594v0.004c0.82-4.383,6.023-11.777,6.023-11.777
			l0.138-11.77c0.545-3.832,8.054-7.707,8.054-7.707l-0.863,1.138c-0.002,0.003-0.008,0.006-0.016,0.011
			c0.016-0.011,0.023-0.019,0.023-0.019c-3.694,4.518-2.908,7.249-2.908,7.249c0.506,3.033,1.726,5.195,3.234,6.736
			c2.064,1.228,6.616,3.206,12.735,1.627c0,0,6.434-1.368,15.861-2.247l-0.58,0.188c-4.109,2.054-7.54,3.422-7.54,3.422l1.681,0.625
			l4.812,1.022c3.152,0.959,2.877,2.533,2.877,2.533l0.138,2.395c1.741,0.434,3.348,1.775,3.938,2.305l6.116-1.566l1.233-2.053
			l3.578,0.145l-0.053-0.383c-0.548-1.6-1.323-6.995-2.273-8.046c-4.78-5.299-11.548-10.182-11.548-10.182
			c-1.336-0.725-2.475-1.71-3.355-2.623c0.935,2.679,1.281,4.944,1.281,4.944l-0.199-0.262c0,0-0.59-1.705-1.979-4.722l-0.031-1.006
			c-0.704-0.847-1.091-1.467-1.091-1.467c-3.284-3.422-12.045-7.461-12.045-7.461l-6.723,0.427L75.97,17.99z M88.872,25.594
			l-8.348-1.857l-1.95-0.41l10.092,1.241l6.132,3.946l0.204,1.362L88.872,25.594z"/>
	</g>
	<path fill-rule="evenodd" clip-rule="evenodd" fill="#002855" d="M75.978,18.009l10.126-6.071c0,0-10.115,1.181-17.621,3.764
		l-1.062,0.367c-10.081,0.096-17.907,2.086-17.907,2.086c-24.132,6.238-22.44,24.479-22.44,24.479
		c0.656,29.276,29.121,29.245,29.121,29.245c23.616,2.67,50.932-6.254,50.932-6.254l3.409-4.137c6.293-7.111,8.942-6.59,8.942-6.59
		c2.346,0.715,0.265,3.256-0.468,4.855c-0.73,1.6-6.902,14.488-6.902,14.488c-3.386,1.543-30.754,6.822-52.838,6.822
		C20.142,81.063,4.54,59.81,4.54,42.569c0-32.535,39.662-37.661,60.518-37.635c22.182,0.034,47.05,6.322,47.05,6.322l7.344,16.044
		c0,0,2.888,4.762-1.54,3.518l-10.785-10.856l-12.568-2.639c-4.174,0.215-1.329,2.874-1.329,2.874
		c3.42,2.057,4.774,4.375,4.774,4.375l3.123,2.9c11.743,8.264,13.622,12.654,13.622,12.654l1.096,5.337l0.614,6.262l-4.994,0.035
		l-1.268,1.922l-7.289,1.844l-10.779-2.953c4.104-2.258,1.548-4.217,1.548-4.217l-7.641-2.832L75.771,48.81l-7.514-1.221
		C59.169,49.571,51.98,64.353,51.98,64.353c3.103-12.711,10.852-18.418,10.852-18.418l-0.648-12.311
		c0.648-3.276,5.748-6.778,5.748-6.778c-3.694,4.518-2.908,7.249-2.908,7.249c1.853,11.09,13.244,10.55,13.244,10.55
		c11.909-3.491,18.007-4.245,18.007-4.245c-4.109,2.054-7.54,3.422-7.54,3.422l8.255,3.072l0.577,4.113l4.558,1.713l6.172-1.584
		l1.233-2.053l3.578,0.145l-1.099-7.732c-6.624-8.157-13.138-12.32-13.138-12.32l-2.861-2.337c0,0-2.419-3.224-3.024-3.652
		c-4.092-2.908-11.053-6.41-11.053-6.41l-0.659,0.201L75.978,18.009z"/>
	<g>
		<path fill-rule="evenodd" clip-rule="evenodd" fill="#002855" d="M94.594,27.126l0.408,2.75l-6.13-4.282l-8.348-1.857l8.146,3.535
			c0,0,3.66,5.783,6.249,4.021l2.04,1.385C96.96,32.677,96.265,30.657,94.594,27.126z"/>
		<polygon fill-rule="evenodd" clip-rule="evenodd" fill="#002855" points="110.572,42.318 111.258,45.944 107.219,38.809 		"/>
	</g>
	<path fill="#FFFFFF" d="M53.799,48.397c0,0,4.107-4.654,4.38-10.404c0,0-8.738,4.367-17.652,12.031
		c-2.197,1.803-2.126,0.658-1.855-0.262c5.96-8.101,17.822-22.091,30.494-24.968c0,0-2.009,11.415,13.223,12.158l13.046-0.389
		l-7.52-4.764c0,0-6.418-5.452-17.177-9.208c-0.895-0.519-0.542-0.929-0.407-1.048c6.347-0.088,16.502,0.847,20.979,4.332
		c0,0-1.35-2.569-9.454-6.333c-1.442-0.646-3.882-0.662-6.243-0.463v-0.003c-3.057,0.071-1.987-0.648-1.871-1.029l3.835-2.713
		l-12.521,3.679c-9.612,1.328-25.18,5.399-37.304,17.759c-0.905,3.409-0.678,5.859-0.678,5.859
		c0.175,7.755,2.297,13.456,5.333,17.646C35.826,61.013,45.248,61.55,53.799,48.397z"/>
	<path fill-rule="evenodd" clip-rule="evenodd" fill="#FFFFFF" d="M106.298,46.354h2.978c-0.803-2.82-2.623-7.985-8.041-11.474
		l-4.274-2.204l8.205,10.393l-4.926-2.054l-10.139,2.242c-0.529,0.223-0.922,0.387-1.146,0.477l4.129-0.006
		c9.205,2.556,7.363,6.289,7.363,6.289s3.612,0.654,4.999,0.238c1.366-0.412,3.983-1.938,2.872-2.326l-6.845-0.139
		C101.473,47.79,105.012,46.052,106.298,46.354z"/>
	<g>
		<path fill="#FFFFFF" d="M42.543,72.415c0,0-20.247-7.934-20.247-29.973c0-17.759,20.139-26.484,20.139-26.484
			S19.057,21.83,19.057,42.311C19.057,66.423,42.543,72.415,42.543,72.415z"/>
		<path fill-rule="evenodd" clip-rule="evenodd" fill="#FFFFFF" d="M56.47,76.397c0,0,37.299-0.703,52.816-7.812l7.426-8.893
			l-6.206,10.113C110.506,69.806,96.016,78.003,56.47,76.397z"/>
		<path fill-rule="evenodd" clip-rule="evenodd" fill="#FFFFFF" d="M75.536,10.651c-16.965-0.548-20.665,0.741-20.533,0.887
			c0,0,5.672-0.461,15.607,0.489L75.536,10.651z"/>
		<path fill-rule="evenodd" clip-rule="evenodd" fill="#FFFFFF" d="M89.754,13.388c6.714,0.395,15.461,1.863,19.532,4.113
			l7.82,9.289l-7.088-11.245c0,0-5.11-2.266-17.909-3.777L89.754,13.388z"/>
	</g>
	<path fill-rule="evenodd" clip-rule="evenodd" fill="#FFFFFF" d="M92.823,29.733c-0.056,0.105-0.092,0.23-0.092,0.359
		c0,0.435,0.354,0.789,0.785,0.789c0.365,0,0.667-0.249,0.76-0.585C93.911,30.371,93.284,30.029,92.823,29.733z"/>
</g>
</svg>
